Simulation
nRows=36
nColumns=15
endheader
time  TH_x TH_y TH_z SC_y  SC_z  SC_x  AC_y  AC_z  AC_x  GH_y  GH_z  GH_yy  EL_x  PS_y
1.7000000000000002  0.000000  0.000000  0.000000  -34.58320104601057  6.797679858875433  15.898150134499357  68.94433581302164  14.64377660222172  0.4454175593860148  53.7662605567966  58.35979072883977  -51.09178705930762  23.17967310561813  0.000000
1.7340000000000002  0.000000  0.000000  0.000000  -34.63054304819955  6.8310664003720465  15.778593918036947  68.91593851286184  14.732582812595828  0.5143632681135222  53.59247443092221  58.17134159435805  -50.69455189138449  23.176420107965814  0.000000
1.7680000000000002  0.000000  0.000000  0.000000  -34.66359304439398  6.840300539534852  15.627655095724082  68.88833761012663  14.807560488300672  0.5626488229865316  53.37289072794024  57.89838794402176  -50.20506150840945  23.176908397527612  0.000000
1.802  0.000000  0.000000  0.000000  -34.68377160184022  6.825447909113543  15.444437508570436  68.86289408004153  14.86974561025368  0.5920786818979009  53.1082332759865  57.54237384302481  -49.624112012057886  23.182175179197714  0.000000
1.836  0.000000  0.000000  0.000000  -34.6912056489607  6.786717614204697  15.229327421412847  68.83946545919878  14.919485446479934  0.6030060948942616  52.79918971133472  57.104498158613644  -48.95274929170901  23.192652203804293  0.000000
1.87  0.000000  0.000000  0.000000  -34.684991612623094  6.724313588420326  14.984224147698573  68.81679759605869  14.955715462818256  0.5947619869812851  52.446759734691774  56.58576368792401  -48.19241237141316  23.208707238403324  0.000000
1.9040000000000001  0.000000  0.000000  0.000000  -34.664264110951144  6.638404244219055  14.712310828974054  68.79394855977942  14.97569476934997  0.566262560050322  52.05179254724278  55.986920112388084  -47.34483914801893  23.231189224725522  0.000000
1.9380000000000002  0.000000  0.000000  0.000000  -34.62921785269948  6.528828222822804  14.417633414347872  68.76994269385695  14.975006525859943  0.5160142411136447  51.61533504563947  55.30905501440678  -46.41148477513291  23.2622713328338  0.000000
1.9720000000000002  0.000000  0.000000  0.000000  -34.57912954413886  6.3948104304936395  14.104315948105288  68.74278846948752  14.949140813976728  0.4413211160250975  51.137239906103964  54.55357031693494  -45.39420211374589  23.301937257825216  0.000000
2.0060000000000002  0.000000  0.000000  0.000000  -34.51112875756653  6.234682028957965  13.777597435695508  68.7090516706521  14.89398132399987  0.33715341113803105  50.61555834116216  53.721445698210964  -44.29519496974495  23.34634943873453  0.000000
2.04  0.000000  0.000000  0.000000  -34.4227800945974  6.045703023374685  13.444702577591485  68.66488490126231  14.803619617901042  0.19646952246244967  50.04700396032243  52.812846520510114  -43.11766467519629  23.394551097935445  0.000000
2.0740000000000003  0.000000  0.000000  0.000000  -34.31322373032631  5.823385033120875  13.114160061333944  68.6064097274236  14.669414446912267  0.009806432755245655  49.428650931318046  51.82986494797208  -41.864680217975945  23.446404174717742  0.000000
2.108  0.000000  0.000000  0.000000  -34.17634887579923  5.561489837824136  12.79645655153769  68.52745243742007  14.482073322927986  -0.23631556332295664  48.7573489300619  50.774321111278304  -40.53962832041909  23.500259832926954  0.000000
2.1420000000000003  0.000000  0.000000  0.000000  -34.001841197138575  5.251167324130849  12.500070067297477  68.41673838354282  14.23588410680979  -0.5594674171905779  48.03216568945106  49.64817242866814  -39.14551436555371  23.553730354673696  0.000000
2.176  0.000000  0.000000  0.000000  -33.78083737501308  4.880518654899819  12.227692279927558  68.26111221223293  13.932348160149308  -0.9817263995237154  47.255649234976346  48.454761007091655  -37.686196031565785  23.606830607355384  0.000000
2.21  0.000000  0.000000  0.000000  -33.50125003467681  4.439761469843071  11.973474120778969  68.04289903204453  13.583238718607197  -1.5220787260965334  46.43789093832028  47.196151669830726  -36.16537986346007  23.660689408185785  0.000000
2.244  0.000000  0.000000  0.000000  -33.15270718147007  3.9297741053504787  11.713267799779057  67.74068127972704  13.216870554851491  -2.1816480944008076  45.60168688966847  45.874456896180135  -34.586492220672376  23.719093412154848  0.000000
2.278  0.000000  0.000000  0.000000  -32.74072241577739  3.3774813118230607  11.401142284310545  67.33608586382263  12.877854727536487  -2.922045126486584  44.779324570365375  44.49077960887045  -32.95075472522914  23.791207528523834  0.000000
2.3120000000000003  0.000000  0.000000  0.000000  -32.293524449586656  2.8376160922904026  10.993918545693452  66.82659759180993  12.604368101085615  -3.663131069731754  43.99180875809149  43.04270395365454  -31.258976592161847  23.88599576024453  0.000000
2.346  0.000000  0.000000  0.000000  -31.853972129522763  2.368250741317169  10.49717991133668  66.23893237484525  12.396385786070415  -4.324953660435153  43.223417013782914  41.524688312587266  -29.510072071113733  24.002689939062194  0.000000
2.3800000000000003  0.000000  0.000000  0.000000  -31.45977248880381  1.9925432336611368  9.961923456374082  65.62314340825903  12.22704385767894  -4.8742733754486  42.42508417589087  39.93346703042652  -27.702818929983213  24.13103672337379  0.000000
2.414  0.000000  0.000000  0.000000  -31.131129428362417  1.6844026018131557  9.431391354075485  65.02698697858341  12.074354772260472  -5.328673059388592  41.55293845762467  38.282750555462  -25.842717222963245  24.257937248068057  0.000000
2.4480000000000004  0.000000  0.000000  0.000000  -30.862485568684733  1.4021628654397902  8.90762855825552  64.46878668484013  11.935636521246737  -5.7214837695918925  40.60029884435241  36.59716139314365  -23.94186191905789  24.377015723878777  0.000000
2.482  0.000000  0.000000  0.000000  -30.632688015980385  1.1204434320766394  8.367915080631514  63.939012739531925  11.821150829536526  -6.0750087466578915  39.590335220319766  34.89260954224979  -22.00919732199971  24.492190062080923  0.000000
2.516  0.000000  0.000000  0.000000  -30.424220644749276  0.8352676052474541  7.80038323009298  63.42252251359583  11.731518820755522  -6.397465362882051  38.54666289057202  33.16907134169076  -20.04890923080659  24.610762295929128  0.000000
2.5500000000000003  0.000000  0.000000  0.000000  -30.231915830914822  0.5553868401397944  7.212955080207798  62.91205503991422  11.648006153936263  -6.688526156430208  37.47832678691967  31.420453378432406  -18.062995440671322  24.733220620806474  0.000000
2.584  0.000000  0.000000  0.000000  -30.058695952156338  0.2902598830152925  6.6283395418453175  62.40668725888717  11.5363973348981  -6.948354619536055  36.381303618166136  29.643667772822027  -16.05583982447743  24.854046276232843  0.000000
2.6180000000000003  0.000000  0.000000  0.000000  -29.906976482537573  0.0458317932891289  6.063644004598691  61.904234012922814  11.370923688186148  -7.176124093177372  35.25299772348491  27.838500321012656  -14.032244760327846  24.969216804227568  0.000000
2.652  0.000000  0.000000  0.000000  -29.775483196199826  -0.17391828801763246  5.521096053365986  61.40662656820512  11.14231507592965  -7.372417656866492  34.10176889693163  26.009097849839897  -11.997275070155194  25.077195777956835  0.000000
2.6860000000000004  0.000000  0.000000  0.000000  -29.660020927314452  -0.3713820120931423  5.002859098293633  60.910738757654734  10.847829843730734  -7.545253673250446  32.93913149169154  24.160684628507827  -9.956589722017666  25.184135223836098  0.000000
2.72  0.000000  0.000000  0.000000  -29.553968975232834  -0.5523722773731966  4.510031760705899  60.41163818956724  10.489665598463617  -7.704684649046255  31.770991297313305  22.298375166919364  -7.916685171774198  25.292804696659932  0.000000
2.754  0.000000  0.000000  0.000000  -29.450300955025558  -0.7204002339087487  4.046170290381364  59.904379087719  10.069345393550531  -7.861277532041263  30.600987886763512  20.428040494535967  -5.883478810024527  25.402089403437085  0.000000
2.7880000000000003  0.000000  0.000000  0.000000  -29.346617982373683  -0.8761165182032525  3.6124001683519595  59.38574063153869  9.592512980931367  -8.020029475092205  29.430251001610255  18.55458160788692  -3.8635617129157556  25.51237191804883  0.000000
2.822  0.000000  0.000000  0.000000  -29.242968324715406  -1.0157320735396589  3.205477615903251  58.85531238124078  9.068385997623762  -8.178713268656459  28.25881283889763  16.68277621433252  -1.863593818355585  25.624010493800785  0.000000
2.8560000000000003  0.000000  0.000000  0.000000  -29.13872452589275  -1.1374826639992708  2.820748439768557  58.31793618764164  8.508526994915737  -8.33306479555998  27.086420139736077  14.817595830236588  0.11025260189491058  25.736356755506044  0.000000
2.89  0.000000  0.000000  0.000000  -29.032606939530226  -1.2376387308687924  2.457112972209058  57.778572970469675  7.91925779462089  -8.473962158164973  25.913728901866506  12.963631369023759  2.0518614377970805  25.84911791537475  0.000000
